{
  "accessors": [
    {
      "bufferView": 2,
      "componentType": 5126,
      "count": 1014,
      "max": [
        0.83589237928390503,
        -0.045092180371284485,
        0.80276143550872803
      ],
      "min": [
        -0.83589237928390503,
        -0.83950626850128174,
        -0.83589237928390503
      ],
      "type": "VEC3"
    },
    {
      "bufferView": 2,
      "byteOffset": 12168,
      "componentType": 5126,
      "count": 1014,
      "max": [
        0.99576622247695923,
        0.99763751029968262,
        0.97254031896591187
      ],
      "min": [
        -0.99576622247695923,
        -1,
        -0.99576622247695923
      ],
      "type": "VEC3"
    },
    {
      "bufferView": 1,
      "componentType": 5126,
      "count": 1014,
      "max": [
        0.48437508940696716,
        1.0000001192092896
      ],
      "min": [
        0,
        0
      ],
      "type": "VEC2"
    },
    {
      "bufferView": 0,
      "componentType": 5125,
      "count": 4845,
      "max": [
        1013
      ],
      "min": [
        0
      ],
      "type": "SCALAR"
    },
    {
      "bufferView": 2,
      "byteOffset": 24336,
      "componentType": 5126,
      "count": 271,
      "max": [
        0.81062304973602295,
        0.26783877611160278,
        0.7721860408782959
      ],
      "min": [
        -0.81062304973602295,
        -0.26752603054046631,
        -0.81062304973602295
      ],
      "type": "VEC3"
    },
    {
      "bufferView": 2,
      "byteOffset": 27588,
      "componentType": 5126,
      "count": 271,
      "max": [
        1,
        0.12051821500062943,
        0.9539954662322998
      ],
      "min": [
        -1,
        -0.16834205389022827,
        -1
      ],
      "type": "VEC3"
    },
    {
      "bufferView": 1,
      "byteOffset": 8112,
      "componentType": 5126,
      "count": 271,
      "max": [
        0.51825463771820068,
        1.0000001192092896
      ],
      "min": [
        0,
        0
      ],
      "type": "VEC2"
    },
    {
      "bufferView": 0,
      "byteOffset": 19380,
      "componentType": 5125,
      "count": 951,
      "max": [
        270
      ],
      "min": [
        0
      ],
      "type": "SCALAR"
    },
    {
      "bufferView": 2,
      "byteOffset": 30840,
      "componentType": 5126,
      "count": 1016,
      "max": [
        0.83589231967926025,
        0.83950626850128174,
        0.80276471376419067
      ],
      "min": [
        -0.83589231967926025,
        0.032284367829561234,
        -0.83589231967926025
      ],
      "type": "VEC3"
    },
    {
      "bufferView": 2,
      "byteOffset": 43032,
      "componentType": 5126,
      "count": 1016,
      "max": [
        0.99576622247695923,
        1,
        0.97252321243286133
      ],
      "min": [
        -0.99576622247695923,
        -0.99763751029968262,
        -0.99576622247695923
      ],
      "type": "VEC3"
    },
    {
      "bufferView": 1,
      "byteOffset": 10280,
      "componentType": 5126,
      "count": 1016,
      "max": [
        0.87500011920928955,
        1.0000001192092896
      ],
      "min": [
        0,
        0
      ],
      "type": "VEC2"
    },
    {
      "bufferView": 0,
      "byteOffset": 23184,
      "componentType": 5125,
      "count": 4848,
      "max": [
        1015
      ],
      "min": [
        0
      ],
      "type": "SCALAR"
    },
    {
      "bufferView": 2,
      "byteOffset": 55224,
      "componentType": 5126,
      "count": 1388,
      "max": [
        0.26776057481765747,
        0.037133444100618362,
        0.26752603054046631
      ],
      "min": [
        -0.26776057481765747,
        -0.015670180320739746,
        -0.26783877611160278
      ],
      "type": "VEC3"
    },
    {
      "bufferView": 2,
      "byteOffset": 71880,
      "componentType": 5126,
      "count": 1388,
      "max": [
        0.99970865249633789,
        1,
        1
      ],
      "min": [
        -0.99970865249633789,
        -1,
        -1
      ],
      "type": "VEC3"
    },
    {
      "bufferView": 1,
      "byteOffset": 18408,
      "componentType": 5126,
      "count": 1388,
      "max": [
        0,
        0
      ],
      "min": [
        0,
        0
      ],
      "type": "VEC2"
    },
    {
      "bufferView": 0,
      "byteOffset": 42576,
      "componentType": 5125,
      "count": 4080,
      "max": [
        1387
      ],
      "min": [
        0
      ],
      "type": "SCALAR"
    },
    {
      "bufferView": 2,
      "byteOffset": 88536,
      "componentType": 5126,
      "count": 1380,
      "max": [
        0.99970799684524536,
        0.13864105939865112,
        0.99883228540420532
      ],
      "min": [
        -0.99970799684524536,
        -0.058506015688180923,
        -1
      ],
      "type": "VEC3"
    },
    {
      "bufferView": 2,
      "byteOffset": 105096,
      "componentType": 5126,
      "count": 1380,
      "max": [
        0.99970865249633789,
        1,
        1
      ],
      "min": [
        -0.99970865249633789,
        -1,
        -1
      ],
      "type": "VEC3"
    },
    {
      "bufferView": 1,
      "byteOffset": 29512,
      "componentType": 5126,
      "count": 1380,
      "max": [
        0,
        0
      ],
      "min": [
        0,
        0
      ],
      "type": "VEC2"
    },
    {
      "bufferView": 0,
      "byteOffset": 58896,
      "componentType": 5125,
      "count": 4080,
      "max": [
        1379
      ],
      "min": [
        0
      ],
      "type": "SCALAR"
    },
    {
      "bufferView": 2,
      "byteOffset": 121656,
      "componentType": 5126,
      "count": 325,
      "max": [
        0.99970799684524536,
        0.13864102959632874,
        0.99883228540420532
      ],
      "min": [
        -0.99970799684524536,
        -0.058506015688180923,
        -1
      ],
      "type": "VEC3"
    },
    {
      "bufferView": 2,
      "byteOffset": 125556,
      "componentType": 5126,
      "count": 325,
      "max": [
        0.99120694398880005,
        0.69640076160430908,
        0.99149668216705322
      ],
      "min": [
        -0.99120694398880005,
        -0.99094200134277344,
        -0.99033969640731812
      ],
      "type": "VEC3"
    },
    {
      "bufferView": 1,
      "byteOffset": 40552,
      "componentType": 5126,
      "count": 325,
      "max": [
        0,
        0
      ],
      "min": [
        0,
        0
      ],
      "type": "VEC2"
    },
    {
      "bufferView": 0,
      "byteOffset": 75216,
      "componentType": 5125,
      "count": 1938,
      "max": [
        324
      ],
      "min": [
        0
      ],
      "type": "SCALAR"
    }
  ],
  "asset": {
    "extras": {
      "author": "henriquef868 (https://sketchfab.com/henriquef868)",
      "license": "CC-BY-4.0 (http://creativecommons.org/licenses/by/4.0/)",
      "source": "https://sketchfab.com/3d-models/pokeball-f2a7d80a08704efb801451ed9d45b7d3",
      "title": "Pokeball"
    },
    "generator": "Sketchfab-10.17.0",
    "version": "2.0"
  },
  "bufferViews": [
    {
      "buffer": 0,
      "byteLength": 82968,
      "byteOffset": 0,
      "name": "floatBufferViews",
      "target": 34963
    },
    {
      "buffer": 0,
      "byteLength": 43152,
      "byteOffset": 82968,
      "byteStride": 8,
      "name": "floatBufferViews",
      "target": 34962
    },
    {
      "buffer": 0,
      "byteLength": 129456,
      "byteOffset": 126120,
      "byteStride": 12,
      "name": "floatBufferViews",
      "target": 34962
    }
  ],
  "buffers": [
    {
      "byteLength": 255576,
      "uri": "scene.bin"
    }
  ],
  "materials": [
    {
      "doubleSided": true,
      "emissiveFactor": [
        0,
        0,
        0
      ],
      "name": "Material",
      "pbrMetallicRoughness": {
        "baseColorFactor": [
          0.80000000000000004,
          0.80000000000000004,
          0.80000000000000004,
          1
        ],
        "metallicFactor": 0,
        "roughnessFactor": 0.190909
      }
    },
    {
      "doubleSided": true,
      "emissiveFactor": [
        0,
        0,
        0
      ],
      "name": "Material.001",
      "pbrMetallicRoughness": {
        "baseColorFactor": [
          0.0071935999999999996,
          0.0071935999999999996,
          0.0071935999999999996,
          1
        ],
        "metallicFactor": 0.45909100000000003,
        "roughnessFactor": 0.17727299999999999
      }
    },
    {
      "doubleSided": true,
      "emissiveFactor": [
        0,
        0,
        0
      ],
      "name": "Material.002",
      "pbrMetallicRoughness": {
        "baseColorFactor": [
          0.80000000000000004,
          0,
          0.0087252300000000005,
          1
        ],
        "metallicFactor": 0,
        "roughnessFactor": 0.163636
      }
    }
  ],
  "meshes": [
    {
      "primitives": [
        {
          "attributes": {
            "NORMAL": 1,
            "POSITION": 0,
            "TEXCOORD_0": 2
          },
          "indices": 3,
          "material": 0,
          "mode": 4
        }
      ]
    },
    {
      "primitives": [
        {
          "attributes": {
            "NORMAL": 5,
            "POSITION": 4,
            "TEXCOORD_0": 6
          },
          "indices": 7,
          "material": 1,
          "mode": 4
        }
      ]
    },
    {
      "primitives": [
        {
          "attributes": {
            "NORMAL": 9,
            "POSITION": 8,
            "TEXCOORD_0": 10
          },
          "indices": 11,
          "material": 2,
          "mode": 4
        }
      ]
    },
    {
      "primitives": [
        {
          "attributes": {
            "NORMAL": 13,
            "POSITION": 12,
            "TEXCOORD_0": 14
          },
          "indices": 15,
          "material": 1,
          "mode": 4
        }
      ]
    },
    {
      "primitives": [
        {
          "attributes": {
            "NORMAL": 17,
            "POSITION": 16,
            "TEXCOORD_0": 18
          },
          "indices": 19,
          "material": 0,
          "mode": 4
        }
      ]
    },
    {
      "primitives": [
        {
          "attributes": {
            "NORMAL": 21,
            "POSITION": 20,
            "TEXCOORD_0": 22
          },
          "indices": 23,
          "material": 0,
          "mode": 4
        }
      ]
    }
  ],
  "nodes": [
    {
      "children": [
        1
      ],
      "name": "RootNode (gltf orientation matrix)",
      "rotation": [
        -0.70710678118654746,
        -0,
        -0,
        0.70710678118654757
      ]
    },
    {
      "children": [
        2
      ],
      "name": "RootNode (model correction matrix)"
    },
    {
      "children": [
        3
      ],
      "name": "root"
    },
    {
      "children": [
        4,
        8,
        10,
        12
      ],
      "matrix": [
        1,
        0,
        0,
        0,
        0,
        2.2204460492503131e-16,
        1,
        0,
        0,
        -1,
        2.2204460492503131e-16,
        0,
        0,
        0,
        0,
        1
      ],
      "name": "GLTF_SceneRootNode"
    },
    {
      "children": [
        5,
        6,
        7
      ],
      "name": "Cube_0"
    },
    {
      "mesh": 0,
      "name": ""
    },
    {
      "mesh": 1,
      "name": ""
    },
    {
      "mesh": 2,
      "name": ""
    },
    {
      "children": [
        9
      ],
      "matrix": [
        1,
        0,
        0,
        0,
        0,
        0,
        1,
        0,
        0,
        -1,
        0,
        0,
        0,
        0,
        0.75824671983718872,
        1
      ],
      "name": "Circle_2"
    },
    {
      "mesh": 3,
      "name": ""
    },
    {
      "children": [
        11
      ],
      "matrix": [
        0.19682608544826508,
        0,
        0,
        0,
        0,
        0,
        0.19682608544826508,
        0,
        0,
        -0.19682608544826508,
        0,
        0,
        0,
        0,
        0.77173548936843872,
        1
      ],
      "name": "Circle.002_3"
    },
    {
      "mesh": 4,
      "name": ""
    },
    {
      "children": [
        13
      ],
      "matrix": [
        0.13961340487003326,
        0,
        0,
        0,
        0,
        0,
        0.13961340487003326,
        0,
        0,
        -0.13961340487003326,
        0,
        0,
        0,
        0,
        0.78859525918960571,
        1
      ],
      "name": "Circle.003_4"
    },
    {
      "mesh": 5,
      "name": ""
    }
  ],
  "scene": 0,
  "scenes": [
    {
      "name": "OSG_Scene",
      "nodes": [
        0
      ]
    }
  ]
}

