{
  "accessors": [
    {
      "bufferView": 3,
      "componentType": 5126,
      "count": 2193,
      "max": [
        13.85789966583252,
        3.388930082321167,
        0.55105799436569214
      ],
      "min": [
        -13.85789966583252,
        -15.842700004577637,
        -19.58799934387207
      ],
      "type": "VEC3"
    },
    {
      "bufferView": 3,
      "byteOffset": 26316,
      "componentType": 5126,
      "count": 2193,
      "max": [
        0.99991744756698608,
        0.99895930290222168,
        0.99754422903060913
      ],
      "min": [
        -0.99991744756698608,
        -0.99986809492111206,
        -0.99975848197937012
      ],
      "type": "VEC3"
    },
    {
      "bufferView": 4,
      "componentType": 5126,
      "count": 2193,
      "max": [
        1,
        1,
        1,
        1
      ],
      "min": [
        1,
        1,
        1,
        1
      ],
      "type": "VEC4"
    },
    {
      "bufferView": 2,
      "componentType": 5126,
      "count": 2193,
      "max": [
        0.9951171875,
        0.99390411376953125
      ],
      "min": [
        -0.99609375,
        0.00732421875
      ],
      "type": "VEC2"
    },
    {
      "bufferView": 2,
      "byteOffset": 17544,
      "componentType": 5126,
      "count": 2193,
      "max": [
        0.9951171875,
        0.99390411376953125
      ],
      "min": [
        -0.99609375,
        0.00732421875
      ],
      "type": "VEC2"
    },
    {
      "bufferView": 1,
      "componentType": 5125,
      "count": 8862,
      "max": [
        2192
      ],
      "min": [
        0
      ],
      "type": "SCALAR"
    },
    {
      "bufferView": 5,
      "componentType": 5126,
      "count": 38,
      "max": [
        1,
        1,
        1.0000001192092896,
        0,
        0.62854295969009399,
        1.0000001192092896,
        1,
        0,
        1,
        0.99640244245529175,
        1,
        0,
        7.4673500061035156,
        6.7388591766357422,
        10.145979881286621,
        1
      ],
      "min": [
        -0.99787318706512451,
        -1,
        -1.0000002384185791,
        0,
        -0.9964025616645813,
        -1,
        -1,
        0,
        -1,
        -0.94449818134307861,
        -0.99787330627441406,
        0,
        -15.8280029296875,
        -15.541042327880859,
        -10.145986557006836,
        1
      ],
      "type": "MAT4"
    },
    {
      "bufferView": 0,
      "componentType": 5123,
      "count": 2193,
      "max": [
        36,
        36,
        36,
        36
      ],
      "min": [
        3,
        3,
        3,
        4
      ],
      "type": "VEC4"
    },
    {
      "bufferView": 4,
      "byteOffset": 35088,
      "componentType": 5126,
      "count": 2193,
      "max": [
        1,
        0.5,
        0.29270309209823608,
        0.10030301660299301
      ],
      "min": [
        0.35958212614059448,
        0,
        0,
        0
      ],
      "type": "VEC4"
    }
  ],
  "asset": {
    "extras": {
      "author": "Romeo_e (https://sketchfab.com/Romeo_e)",
      "license": "CC-BY-4.0 (http://creativecommons.org/licenses/by/4.0/)",
      "source": "https://sketchfab.com/3d-models/darkrai-boned-fe404fa37b09478ea1c2d9cb6548a9ca",
      "title": "Darkrai boned"
    },
    "generator": "Sketchfab-8.47.0",
    "version": "2.0"
  },
  "bufferViews": [
    {
      "buffer": 0,
      "byteLength": 17544,
      "byteOffset": 0,
      "byteStride": 8,
      "name": "shortBufferViews",
      "target": 34962
    },
    {
      "buffer": 0,
      "byteLength": 35448,
      "byteOffset": 17544,
      "name": "floatBufferViews",
      "target": 34963
    },
    {
      "buffer": 0,
      "byteLength": 35088,
      "byteOffset": 52992,
      "byteStride": 8,
      "name": "floatBufferViews",
      "target": 34962
    },
    {
      "buffer": 0,
      "byteLength": 52632,
      "byteOffset": 88080,
      "byteStride": 12,
      "name": "floatBufferViews",
      "target": 34962
    },
    {
      "buffer": 0,
      "byteLength": 70176,
      "byteOffset": 140712,
      "byteStride": 16,
      "name": "floatBufferViews",
      "target": 34962
    },
    {
      "buffer": 0,
      "byteLength": 2432,
      "byteOffset": 210888,
      "byteStride": 64,
      "name": "floatBufferViews"
    }
  ],
  "buffers": [
    {
      "byteLength": 213320,
      "uri": "scene.bin"
    }
  ],
  "images": [
    {
      "uri": "textures/body_baseColor.png"
    }
  ],
  "materials": [
    {
      "alphaMode": "BLEND",
      "doubleSided": true,
      "emissiveFactor": [
        0,
        0,
        0
      ],
      "name": "body",
      "pbrMetallicRoughness": {
        "baseColorFactor": [
          1,
          1,
          1,
          1
        ],
        "baseColorTexture": {
          "index": 0,
          "texCoord": 0
        },
        "metallicFactor": 0,
        "roughnessFactor": 0.89297135964975516
      }
    }
  ],
  "meshes": [
    {
      "name": "GamemodelShape_body_0",
      "primitives": [
        {
          "attributes": {
            "COLOR_0": 2,
            "JOINTS_0": 7,
            "NORMAL": 1,
            "POSITION": 0,
            "TEXCOORD_0": 3,
            "TEXCOORD_1": 4,
            "WEIGHTS_0": 8
          },
          "indices": 5,
          "material": 0,
          "mode": 4
        }
      ]
    }
  ],
  "nodes": [
    {
      "children": [
        1
      ],
      "name": "RootNode (gltf orientation matrix)",
      "rotation": [
        -0.70710678118654746,
        -0,
        -0,
        0.70710678118654757
      ]
    },
    {
      "children": [
        2
      ],
      "name": "RootNode (model correction matrix)"
    },
    {
      "children": [
        3
      ],
      "matrix": [
        1,
        0,
        0,
        0,
        0,
        0,
        1,
        0,
        0,
        -1,
        0,
        0,
        0,
        0,
        0,
        1
      ],
      "name": "Darkrai.FBX"
    },
    {
      "children": [
        4
      ],
      "name": "RootNode"
    },
    {
      "children": [
        5,
        7,
        6
      ],
      "name": ""
    },
    {
      "children": [
        8
      ],
      "name": "_rootJoint"
    },
    {
      "matrix": [
        1,
        -8.2718061255302767e-25,
        0,
        0,
        5.0650204473990614e-41,
        6.123233995736766e-17,
        -1,
        0,
        8.2718061255302758e-25,
        0.99999999999999989,
        6.1232339957367648e-17,
        0,
        0,
        1.1102230246251565e-16,
        0,
        1
      ],
      "name": ""
    },
    {
      "mesh": 0,
      "name": "",
      "skin": 0
    },
    {
      "children": [
        9
      ],
      "name": "Trans_01"
    },
    {
      "children": [
        10,
        44
      ],
      "name": "Rot_02",
      "translation": [
        0,
        5.5350699424743652,
        0
      ]
    },
    {
      "children": [
        11,
        21,
        31,
        38
      ],
      "name": "Hip_03",
      "rotation": [
        0.5,
        0.5,
        0.5,
        0.5
      ]
    },
    {
      "children": [
        12,
        18
      ],
      "name": "ClavicleL_04",
      "rotation": [
        -0.0019502667710185051,
        0.96267974376678467,
        0.00054824765538796782,
        -0.27063563466072083
      ],
      "scale": [
        0.99999994039535522,
        1.0000004768371582,
        1.0000008344650269
      ],
      "translation": [
        3.251039981842041,
        0.51396399736404419,
        2.4859700202941895
      ]
    },
    {
      "children": [
        13
      ],
      "name": "FeelerL1_05",
      "rotation": [
        -0.00072225247276946902,
        0.35655924677848816,
        0.0018926301272585988,
        0.93427062034606934
      ],
      "scale": [
        1.0000003576278687,
        0.99999964237213135,
        0.99999934434890747
      ],
      "translation": [
        0.51437616348266602,
        0.0020840167999267578,
        -1.2947101593017578
      ]
    },
    {
      "children": [
        14
      ],
      "name": "FeelerL2_06",
      "rotation": [
        -1.2304137442242791e-07,
        0.2010224312543869,
        -2.6327223068278727e-08,
        0.97958666086196899
      ],
      "scale": [
        1.0000001192092896,
        0.99999988079071045,
        1.0000002384185791
      ],
      "translation": [
        1.6414318084716797,
        -5.9604644775390625e-08,
        2.86102294921875e-06
      ]
    },
    {
      "children": [
        15
      ],
      "name": "FeelerL3_07",
      "rotation": [
        -6.2094009933844063e-08,
        0.12109469622373581,
        9.7036967350305758e-10,
        0.99264097213745117
      ],
      "scale": [
        0.99999880790710449,
        1,
        0.99999910593032837
      ],
      "translation": [
        1.8141908645629883,
        0,
        4.76837158203125e-07
      ]
    },
    {
      "children": [
        16
      ],
      "name": "FeelerL4_08",
      "rotation": [
        1.3959066791358055e-07,
        0.31127479672431946,
        1.3847001767430811e-08,
        0.95031994581222534
      ],
      "scale": [
        1.0000009536743164,
        0.99999994039535522,
        1.000001072883606
      ],
      "translation": [
        1.7701339721679688,
        1.1920928955078125e-07,
        -8.58306884765625e-06
      ]
    },
    {
      "children": [
        17
      ],
      "name": "FeelerL5_09",
      "rotation": [
        -5.2277545847800866e-08,
        -0.44480010867118835,
        3.4076013122330551e-09,
        0.8956298828125
      ],
      "scale": [
        0.9999992847442627,
        1.0000001192092896,
        0.99999940395355225
      ],
      "translation": [
        1.7365646362304688,
        -1.0728836059570312e-06,
        -2.384185791015625e-06
      ]
    },
    {
      "name": "FeelerL6_010",
      "rotation": [
        -6.4189087822796864e-08,
        0.28914248943328857,
        -1.3585605529442546e-08,
        0.95728605985641479
      ],
      "scale": [
        1.0000004768371582,
        1,
        1.0000004768371582
      ],
      "translation": [
        1.7272043228149414,
        0,
        -8.58306884765625e-06
      ]
    },
    {
      "children": [
        19
      ],
      "name": "ShoulderL_011",
      "rotation": [
        0.0024190039839595556,
        -0.27062556147575378,
        -0.0047041340731084347,
        0.96267026662826538
      ],
      "scale": [
        0.99999874830245972,
        0.99999910593032837,
        1
      ],
      "translation": [
        1.552497386932373,
        -6.2584877014160156e-07,
        9.5367431640625e-06
      ]
    },
    {
      "children": [
        20
      ],
      "name": "ArmL_012",
      "rotation": [
        -2.1411441508689677e-08,
        -1.1077581518748048e-08,
        0.021023126319050789,
        0.99977898597717285
      ],
      "scale": [
        1.0000009536743164,
        1.000001072883606,
        1
      ],
      "translation": [
        3.0853161811828613,
        5.9604644775390625e-07,
        -7.152557373046875e-07
      ]
    },
    {
      "name": "HandL_013",
      "rotation": [
        0.70703631639480591,
        -0.0099784974008798599,
        -0.0099785933271050453,
        0.70703643560409546
      ],
      "scale": [
        0.99999958276748657,
        1,
        0.9999995231628418
      ],
      "translation": [
        1.7343108654022217,
        -7.152557373046875e-07,
        0
      ]
    },
    {
      "children": [
        22,
        28
      ],
      "name": "ClavicleR_014",
      "rotation": [
        -0.0019503263756632805,
        0.96267926692962646,
        -0.00054842024110257626,
        0.27063733339309692
      ],
      "scale": [
        1.0000001192092896,
        1.0000003576278687,
        0.99999982118606567
      ],
      "translation": [
        3.251030445098877,
        0.51396399736404419,
        -2.4859600067138672
      ]
    },
    {
      "children": [
        23
      ],
      "name": "FeelerR1_015",
      "rotation": [
        0.00072245142655447125,
        -0.3565593957901001,
        0.0018929858924821019,
        0.93427044153213501
      ],
      "scale": [
        0.9999997615814209,
        0.99999940395355225,
        1.0000001192092896
      ],
      "translation": [
        0.51438426971435547,
        0.0020847618579864502,
        1.2947173118591309
      ]
    },
    {
      "children": [
        24
      ],
      "name": "FeelerR2_016",
      "rotation": [
        -1.1641639474646581e-07,
        -0.2010219395160675,
        9.4222016855383117e-09,
        0.97958683967590332
      ],
      "scale": [
        1,
        1.0000002384185791,
        0.99999964237213135
      ],
      "translation": [
        1.6414306163787842,
        -1.1920928955078125e-07,
        1.9073486328125e-06
      ]
    },
    {
      "children": [
        25
      ],
      "name": "FeelerR3_017",
      "rotation": [
        -3.3686546885292046e-08,
        -0.1210930123925209,
        5.8549560755238872e-09,
        0.9926411509513855
      ],
      "scale": [
        1.0000001192092896,
        1,
        1.0000002384185791
      ],
      "translation": [
        1.8141927719116211,
        -1.1102230246251565e-16,
        8.106231689453125e-06
      ]
    },
    {
      "children": [
        26
      ],
      "name": "FeelerR4_018",
      "rotation": [
        1.3289066203014954e-07,
        -0.31127637624740601,
        9.3839496173586667e-09,
        0.95031940937042236
      ],
      "scale": [
        1.0000002384185791,
        0.99999988079071045,
        1.0000002384185791
      ],
      "translation": [
        1.7701358795166016,
        0,
        -1.239776611328125e-05
      ]
    },
    {
      "children": [
        27
      ],
      "name": "FeelerR5_019",
      "rotation": [
        -1.844643691129022e-07,
        0.44480127096176147,
        1.0941088035565372e-08,
        0.89562928676605225
      ],
      "scale": [
        0.99999958276748657,
        1,
        0.9999997615814209
      ],
      "translation": [
        1.7365684509277344,
        1.1920928955078125e-07,
        1.239776611328125e-05
      ]
    },
    {
      "name": "FeelerR6_020",
      "rotation": [
        5.5776855134581638e-08,
        -0.28914329409599304,
        -9.0230996008244801e-09,
        0.95728582143783569
      ],
      "scale": [
        1.0000002384185791,
        1,
        1.0000003576278687
      ],
      "translation": [
        1.7272024154663086,
        5.9604644775390625e-08,
        1.049041748046875e-05
      ]
    },
    {
      "children": [
        29
      ],
      "name": "ShoulderR_021",
      "rotation": [
        -0.0024190335534512997,
        0.27062702178955078,
        -0.0047041689977049828,
        0.96266984939575195
      ],
      "scale": [
        0.99999940395355225,
        0.99999892711639404,
        0.9999997615814209
      ],
      "translation": [
        1.5524997711181641,
        -2.9802322387695312e-07,
        7.152557373046875e-06
      ]
    },
    {
      "children": [
        30
      ],
      "name": "ArmR_022",
      "rotation": [
        -5.031520089460173e-08,
        -9.9789412288942003e-09,
        0.021023062989115715,
        0.99977898597717285
      ],
      "scale": [
        1.000001072883606,
        1.000001072883606,
        1.0000002384185791
      ],
      "translation": [
        3.0853161811828613,
        -5.0663948059082031e-07,
        -9.5367431640625e-07
      ]
    },
    {
      "name": "HandR_023",
      "rotation": [
        -0.70703637599945068,
        0.0099785411730408669,
        -0.0099784601479768753,
        0.70703637599945068
      ],
      "scale": [
        0.99999940395355225,
        0.99999994039535522,
        0.99999958276748657
      ],
      "translation": [
        1.7343199253082275,
        2.384185791015625e-07,
        0
      ]
    },
    {
      "children": [
        32
      ],
      "name": "Head_024",
      "rotation": [
        8.229521952785035e-09,
        6.6129913989243505e-08,
        0.33333554863929749,
        0.94280827045440674
      ],
      "scale": [
        1.0000002384185791,
        1.0000003576278687,
        1.0000001192092896
      ],
      "translation": [
        5.1863303184509277,
        -0,
        4.9303806576313238e-32
      ]
    },
    {
      "children": [
        33
      ],
      "name": "Hair1_025",
      "rotation": [
        4.7750365439469533e-08,
        -2.5955582572123603e-08,
        -0.4069170355796814,
        0.91346514225006104
      ],
      "scale": [
        0.9999995231628418,
        0.99999964237213135,
        0.99999982118606567
      ],
      "translation": [
        1.5300836563110352,
        0.15537452697753906,
        1.7313902844762197e-07
      ]
    },
    {
      "children": [
        34
      ],
      "name": "Hair2_00",
      "rotation": [
        -7.3278400236631569e-08,
        -1.0962875762743352e-07,
        -0.21131934225559235,
        0.97741717100143433
      ],
      "scale": [
        0.9999997615814209,
        0.99999988079071045,
        1
      ],
      "translation": [
        1.6321506500244141,
        8.8214874267578125e-06,
        1.8848675154004013e-07
      ]
    },
    {
      "children": [
        35
      ],
      "name": "Hair3_026",
      "rotation": [
        8.9035330219644493e-09,
        7.183228234453054e-08,
        -0.27979010343551636,
        0.96006131172180176
      ],
      "scale": [
        1,
        1.0000001192092896,
        1
      ],
      "translation": [
        2.5893068313598633,
        -2.86102294921875e-06,
        -2.9902395226599765e-07
      ]
    },
    {
      "children": [
        36
      ],
      "name": "Hair4_027",
      "rotation": [
        1.2299718576969099e-08,
        -2.921236230690738e-08,
        0.036120377480983734,
        0.99934744834899902
      ],
      "scale": [
        1.0000004768371582,
        1.0000003576278687,
        1.0000001192092896
      ],
      "translation": [
        2.8709979057312012,
        -3.814697265625e-06,
        -8.6897671280894428e-09
      ]
    },
    {
      "children": [
        37
      ],
      "name": "Hair5_028",
      "rotation": [
        3.7237728456318564e-09,
        -9.3736807205146988e-10,
        1.4901162970204496e-08,
        1
      ],
      "scale": [
        0.99999988079071045,
        0.99999988079071045,
        0.99999988079071045
      ],
      "translation": [
        2.6262197494506836,
        -2.765655517578125e-05,
        -1.5653546370231197e-07
      ]
    },
    {
      "name": "Hair6_029",
      "rotation": [
        1.7118226836032591e-08,
        8.9483087606367917e-08,
        -0.078342258930206299,
        0.99692654609680176
      ],
      "scale": [
        1,
        0.99999982118606567,
        1.0000001192092896
      ],
      "translation": [
        2.3447456359863281,
        4.57763671875e-05,
        -1.4415303439818672e-07
      ]
    },
    {
      "children": [
        39
      ],
      "name": "Hip2_030",
      "rotation": [
        -5.9604644775390625e-08,
        -5.9604644775390625e-08,
        1,
        -3.8285688045569402e-16
      ]
    },
    {
      "children": [
        40
      ],
      "name": "Tail1_031",
      "rotation": [
        0.87672537565231323,
        0.48099130392074585,
        -1.4594736086337434e-08,
        -7.3293684010877769e-08
      ],
      "scale": [
        1.0000004768371582,
        1.0000004768371582,
        1
      ],
      "translation": [
        0.85748004913330078,
        2.0822899341583252,
        3.504478911509068e-07
      ]
    },
    {
      "children": [
        41
      ],
      "name": "Tail2_032",
      "rotation": [
        -2.1412934358977509e-07,
        -4.7410582126872214e-09,
        -0.52189147472381592,
        0.85301202535629272
      ],
      "scale": [
        0.99999940395355225,
        0.9999995231628418,
        1.0000001192092896
      ],
      "translation": [
        1.5579090118408203,
        4.291534423828125e-06,
        -1.8644334431883181e-07
      ]
    },
    {
      "children": [
        42
      ],
      "name": "Tail3_033",
      "rotation": [
        -1.5744602066547486e-08,
        4.746328485794038e-08,
        0.22118678689002991,
        0.97523146867752075
      ],
      "scale": [
        1.0000002384185791,
        1.0000003576278687,
        1
      ],
      "translation": [
        1.3746538162231445,
        -7.152557373046875e-07,
        -1.7411355202057166e-07
      ]
    },
    {
      "children": [
        43
      ],
      "name": "Tail4_034",
      "rotation": [
        5.7348859883177283e-08,
        1.4888942523327842e-08,
        -0.25398001074790955,
        0.9672095775604248
      ],
      "scale": [
        1.0000002384185791,
        1.0000001192092896,
        0.99999988079071045
      ],
      "translation": [
        2.9762659072875977,
        -2.384185791015625e-06,
        1.773987605702132e-07
      ]
    },
    {
      "name": "Tail5_035",
      "rotation": [
        3.1527065402769949e-08,
        2.5958213356602755e-08,
        0.034170195460319519,
        0.9994160532951355
      ],
      "scale": [
        0.99999958276748657,
        0.99999934434890747,
        0.99999994039535522
      ],
      "translation": [
        2.2458267211914062,
        2.384185791015625e-07,
        4.1832493025140138e-09
      ]
    },
    {
      "name": "Throw_036",
      "translation": [
        0,
        -5.5350699424743652,
        0
      ]
    }
  ],
  "samplers": [
    {
      "magFilter": 9729,
      "minFilter": 9987,
      "wrapS": 10497,
      "wrapT": 10497
    }
  ],
  "scene": 0,
  "scenes": [
    {
      "name": "OSG_Scene",
      "nodes": [
        0
      ]
    }
  ],
  "skins": [
    {
      "inverseBindMatrices": 6,
      "joints": [
        5,
        8,
        9,
        10,
        11,
        12,
        13,
        14,
        15,
        16,
        17,
        18,
        19,
        20,
        21,
        22,
        23,
        24,
        25,
        26,
        27,
        28,
        29,
        30,
        31,
        32,
        33,
        34,
        35,
        36,
        37,
        38,
        39,
        40,
        41,
        42,
        43,
        44
      ],
      "skeleton": 5
    }
  ],
  "textures": [
    {
      "sampler": 0,
      "source": 0
    }
  ]
}

